<?xml version="1.0" encoding="utf-8"?>
<!-- Generator: Adobe Illustrator 24.0.1, SVG Export Plug-In . SVG Version: 6.00 Build 0)  -->
<svg version="1.1" baseProfile="tiny" id="Слой_1"
	 xmlns="http://www.w3.org/2000/svg" xmlns:xlink="http://www.w3.org/1999/xlink" x="0px" y="0px" width="270.9px" height="70.9px"
	 viewBox="0 0 270.9 70.9" xml:space="preserve">
<g>
	<g>
		<path fill="#FFFFFF" d="M1,26.9c-0.1,0-0.2,0-0.3-0.1c-0.5-0.2-0.8-0.8-0.6-1.3C4.2,14,15.3,6.3,27.5,6.3
			c8.7,0,16.9,3.8,22.4,10.5c0.4,0.4,0.3,1.1-0.1,1.4c-0.4,0.4-1.1,0.3-1.4-0.1c-5.2-6.2-12.8-9.8-20.9-9.8
			c-11.4,0-21.7,7.2-25.6,18C1.8,26.6,1.4,26.9,1,26.9z"/>
		<path fill="#FFFFFF" d="M27.5,64.6c-12.3,0-23.3-7.7-27.5-19.3c-0.2-0.5,0.1-1.1,0.6-1.3c0.5-0.2,1.1,0.1,1.3,0.6
			c3.9,10.7,14.2,18,25.6,18c8.1,0,15.7-3.6,20.9-9.8c0.4-0.4,1-0.5,1.4-0.1c0.4,0.4,0.5,1,0.1,1.4C44.4,60.8,36.2,64.6,27.5,64.6z"
			/>
		<path fill="#FFFFFF" d="M54.7,15.8c-0.3,0-0.6-0.1-0.8-0.4C47.5,7.1,37.9,2.4,27.5,2.4c-8.1,0-16,3-22,8.4c-0.4,0.4-1,0.3-1.4-0.1
			c-0.4-0.4-0.3-1,0.1-1.4c6.4-5.8,14.7-8.9,23.4-8.9c11.1,0,21.2,5.1,27.9,13.9c0.3,0.4,0.2,1.1-0.2,1.4
			C55.1,15.8,54.9,15.8,54.7,15.8z"/>
		<path fill="#FFFFFF" d="M27.5,70.5c-8.6,0-16.9-3.2-23.4-8.9c-0.4-0.4-0.4-1-0.1-1.4c0.4-0.4,1-0.4,1.4-0.1
			c6.1,5.4,13.9,8.4,22,8.4c10.4,0,20-4.8,26.3-13.1c0.3-0.4,1-0.5,1.4-0.2c0.4,0.3,0.5,1,0.2,1.4C48.8,65.4,38.6,70.5,27.5,70.5z"
			/>
		<path fill="#FFFFFF" d="M27.5,59.1c-13.1,0-23.7-10.6-23.7-23.7s10.6-23.7,23.7-23.7c6.6,0,12.7,2.6,17.2,7.4c0.4,0.4,0.4,1,0,1.4
			c-0.4,0.4-1,0.4-1.4,0c-4.1-4.4-9.7-6.8-15.8-6.8c-12,0-21.7,9.7-21.7,21.7s9.7,21.7,21.7,21.7c6,0,11.6-2.4,15.8-6.8
			c0.4-0.4,1-0.4,1.4,0c0.4,0.4,0.4,1,0,1.4C40.2,56.5,34.1,59.1,27.5,59.1z"/>
		<path fill="#FFFFFF" d="M19.5,51.5c-0.2,0-0.3,0-0.5-0.1c-5.9-3.1-9.6-9.2-9.6-15.9c0-6.7,3.7-12.8,9.6-15.9
			c0.5-0.3,1.1-0.1,1.4,0.4c0.3,0.5,0.1,1.1-0.4,1.4c-5.2,2.8-8.5,8.2-8.5,14.2c0,5.9,3.3,11.4,8.5,14.2c0.5,0.3,0.7,0.9,0.4,1.4
			C20.2,51.3,19.9,51.5,19.5,51.5z"/>
		<path fill="#FFFFFF" d="M18.9,43.9c-0.3,0-0.6-0.1-0.8-0.3c-1.9-2.2-3-5.1-3-8.1s1.1-5.8,3-8.1c0.4-0.4,1-0.5,1.4-0.1
			c0.4,0.4,0.5,1,0.1,1.4c-1.6,1.9-2.5,4.3-2.5,6.8c0,2.5,0.9,4.9,2.5,6.8c0.4,0.4,0.3,1.1-0.1,1.4C19.4,43.8,19.2,43.9,18.9,43.9z"
			/>
	</g>
	<g>
		<g>
			<path fill="#FFFFFF" d="M103.5,61.7c0,0,0.1,0,0.2,0c0.1,0,0.1,0,0.2,0.1c0.1,0.1,0.1,0.1,0.1,0.2c0,0.1-0.1,0.2-0.2,0.3
				c-0.2,0.1-0.5,0.2-0.8,0.3c-0.3,0.1-0.6,0.1-1,0.1c-0.4,0-0.7-0.1-1.1-0.2c-0.3-0.1-0.6-0.3-0.8-0.5c-0.5-0.5-0.8-1.2-0.8-2
				c0-0.8,0.3-1.5,0.8-2c0.5-0.5,1.1-0.7,1.9-0.7c0.4,0,0.7,0,1,0.1c0.3,0.1,0.5,0.2,0.6,0.3c0.1,0.1,0.2,0.1,0.3,0.2
				c0,0,0.1,0.1,0.1,0.2s0,0.1-0.1,0.2c-0.1,0.1-0.1,0.1-0.2,0.1c-0.1,0-0.1,0-0.2,0c-0.2-0.1-0.4-0.2-0.6-0.3
				c-0.2-0.1-0.5-0.1-0.8-0.1c-0.3,0-0.6,0.1-0.9,0.2c-0.3,0.1-0.5,0.3-0.6,0.4c-0.3,0.4-0.5,0.9-0.5,1.5c0,0.6,0.2,1.1,0.5,1.5
				c0.4,0.4,0.9,0.6,1.5,0.6c0.3,0,0.6,0,0.8-0.1C103,61.9,103.3,61.8,103.5,61.7z"/>
			<path fill="#FFFFFF" d="M106.3,58c0.5-0.5,1.1-0.8,1.9-0.8c0.8,0,1.4,0.3,1.9,0.8c0.5,0.5,0.7,1.2,0.7,2c0,0.8-0.3,1.5-0.7,2
				c-0.5,0.5-1.1,0.8-1.9,0.8c-0.8,0-1.4-0.3-1.9-0.8c-0.5-0.5-0.7-1.2-0.7-2C105.6,59.1,105.8,58.5,106.3,58z M108.3,62
				c0.6,0,1.1-0.2,1.5-0.6c0.3-0.4,0.5-0.9,0.5-1.5c0-0.6-0.2-1.1-0.5-1.5c-0.4-0.4-0.8-0.6-1.5-0.6c-0.6,0-1.1,0.2-1.5,0.6
				c-0.3,0.4-0.5,0.9-0.5,1.5c0,0.6,0.2,1.1,0.5,1.5C107.1,61.8,107.6,62,108.3,62z"/>
			<path fill="#FFFFFF" d="M118.8,57.4c0.1,0.1,0.1,0.2,0.1,0.4v4.5c0,0.1,0,0.2-0.1,0.2c-0.1,0.1-0.1,0.1-0.2,0.1
				c-0.1,0-0.2,0-0.2-0.1c-0.1-0.1-0.1-0.1-0.1-0.2V58l-1.8,4.3c0,0.1-0.1,0.2-0.2,0.2c-0.1,0.1-0.2,0.1-0.3,0.1
				c-0.1,0-0.2,0-0.3-0.1c-0.1-0.1-0.2-0.1-0.2-0.2l-1.8-4.3v4.3c0,0.1,0,0.2-0.1,0.2c-0.1,0.1-0.2,0.1-0.3,0.1
				c-0.1,0-0.2,0-0.2-0.1c-0.1-0.1-0.1-0.1-0.1-0.2v-4.5c0-0.1,0-0.3,0.1-0.4c0.1-0.1,0.2-0.1,0.4-0.1h0.3c0.1,0,0.2,0,0.3,0.1
				c0.1,0.1,0.1,0.1,0.2,0.2l1.7,4.3l1.7-4.3c0-0.1,0.1-0.2,0.2-0.2c0.1-0.1,0.2-0.1,0.3-0.1h0.2C118.5,57.3,118.7,57.3,118.8,57.4z
				"/>
			<path fill="#FFFFFF" d="M127.1,57.4c0.1,0.1,0.1,0.2,0.1,0.4v4.5c0,0.1,0,0.2-0.1,0.2c-0.1,0.1-0.1,0.1-0.2,0.1
				c-0.1,0-0.2,0-0.2-0.1c-0.1-0.1-0.1-0.1-0.1-0.2V58l-1.8,4.3c0,0.1-0.1,0.2-0.2,0.2c-0.1,0.1-0.2,0.1-0.3,0.1
				c-0.1,0-0.2,0-0.3-0.1c-0.1-0.1-0.2-0.1-0.2-0.2L122,58v4.3c0,0.1,0,0.2-0.1,0.2c-0.1,0.1-0.2,0.1-0.3,0.1c-0.1,0-0.2,0-0.2-0.1
				c-0.1-0.1-0.1-0.1-0.1-0.2v-4.5c0-0.1,0-0.3,0.1-0.4c0.1-0.1,0.2-0.1,0.4-0.1h0.3c0.1,0,0.2,0,0.3,0.1c0.1,0.1,0.1,0.1,0.2,0.2
				l1.7,4.3l1.7-4.3c0-0.1,0.1-0.2,0.2-0.2c0.1-0.1,0.2-0.1,0.3-0.1h0.2C126.8,57.3,127,57.3,127.1,57.4z"/>
			<path fill="#FFFFFF" d="M133.6,57.3c0.1,0,0.2,0,0.2,0.1c0.1,0.1,0.1,0.2,0.1,0.3v3c0,0.7-0.2,1.2-0.7,1.6
				c-0.4,0.3-0.9,0.5-1.5,0.5c-0.6,0-1.1-0.2-1.5-0.5c-0.5-0.4-0.7-0.9-0.7-1.6v-3c0-0.1,0-0.2,0.1-0.2c0.1-0.1,0.1-0.1,0.2-0.1
				c0.1,0,0.2,0,0.2,0.1c0.1,0.1,0.1,0.2,0.1,0.3v3c0,0.5,0.2,0.8,0.5,1.1c0.3,0.2,0.6,0.4,1,0.4c0.4,0,0.7-0.1,1-0.4
				c0.3-0.3,0.5-0.6,0.5-1.1v-3c0-0.1,0-0.2,0.1-0.2C133.4,57.3,133.5,57.3,133.6,57.3z"/>
			<path fill="#FFFFFF" d="M140.6,57.3c0.1,0,0.2,0,0.2,0.1c0.1,0.1,0.1,0.2,0.1,0.3v4.5c0,0.1,0,0.3-0.1,0.3
				c-0.1,0.1-0.2,0.1-0.4,0.1h-0.1c-0.2,0-0.3-0.1-0.4-0.2l-2.9-4.3v4.1c0,0.1,0,0.2-0.1,0.2c-0.1,0.1-0.2,0.1-0.3,0.1
				c-0.1,0-0.2,0-0.2-0.1c-0.1-0.1-0.1-0.1-0.1-0.2v-4.5c0-0.1,0-0.3,0.1-0.4c0.1-0.1,0.2-0.1,0.4-0.1h0.1c0.2,0,0.3,0.1,0.4,0.2
				l2.9,4.2v-4.1c0-0.1,0-0.2,0.1-0.2C140.4,57.3,140.5,57.3,140.6,57.3z"/>
			<path fill="#FFFFFF" d="M143.7,57.3c0.1,0,0.2,0,0.2,0.1c0.1,0.1,0.1,0.2,0.1,0.3v4.7c0,0.1,0,0.2-0.1,0.2
				c-0.1,0.1-0.2,0.1-0.3,0.1c-0.1,0-0.2,0-0.2-0.1c-0.1-0.1-0.1-0.1-0.1-0.2v-4.7c0-0.1,0-0.2,0.1-0.2
				C143.6,57.3,143.6,57.3,143.7,57.3z"/>
			<path fill="#FFFFFF" d="M150.3,61.7c0,0,0.1,0,0.2,0c0.1,0,0.1,0,0.2,0.1c0.1,0.1,0.1,0.1,0.1,0.2c0,0.1-0.1,0.2-0.2,0.3
				c-0.2,0.1-0.5,0.2-0.8,0.3c-0.3,0.1-0.6,0.1-1,0.1c-0.4,0-0.7-0.1-1.1-0.2c-0.3-0.1-0.6-0.3-0.8-0.5c-0.5-0.5-0.8-1.2-0.8-2
				c0-0.8,0.3-1.5,0.8-2c0.5-0.5,1.1-0.7,1.9-0.7c0.4,0,0.7,0,1,0.1c0.3,0.1,0.5,0.2,0.6,0.3c0.1,0.1,0.2,0.1,0.3,0.2
				c0,0,0.1,0.1,0.1,0.2s0,0.1-0.1,0.2c-0.1,0.1-0.1,0.1-0.2,0.1c-0.1,0-0.1,0-0.2,0c-0.2-0.1-0.4-0.2-0.6-0.3
				c-0.2-0.1-0.5-0.1-0.8-0.1c-0.3,0-0.6,0.1-0.9,0.2c-0.3,0.1-0.5,0.3-0.6,0.4c-0.3,0.4-0.5,0.9-0.5,1.5c0,0.6,0.2,1.1,0.5,1.5
				c0.4,0.4,0.9,0.6,1.5,0.6c0.3,0,0.6,0,0.8-0.1C149.9,61.9,150.1,61.8,150.3,61.7z"/>
			<path fill="#FFFFFF" d="M157.1,62.1c0,0.1,0,0.1,0,0.2c0,0.1,0,0.1-0.1,0.2c-0.1,0.1-0.2,0.1-0.3,0.1s-0.2-0.1-0.3-0.2l-0.5-1.2
				h-2.6l-0.5,1.2c-0.1,0.1-0.2,0.2-0.3,0.2s-0.2,0-0.3-0.1c-0.1-0.1-0.1-0.1-0.1-0.2c0-0.1,0-0.1,0-0.2l1.9-4.6
				c0.1-0.2,0.2-0.3,0.4-0.3h0.1c0.2,0,0.4,0.1,0.4,0.3L157.1,62.1z M155.7,60.6l-1-2.5l-1,2.5H155.7z"/>
			<path fill="#FFFFFF" d="M162.7,57.4c0.1,0.1,0.1,0.1,0.1,0.2s0,0.2-0.1,0.2c-0.1,0.1-0.1,0.1-0.2,0.1h-1.6v4.4
				c0,0.1,0,0.2-0.1,0.2c-0.1,0.1-0.1,0.1-0.2,0.1c-0.1,0-0.2,0-0.2-0.1c-0.1-0.1-0.1-0.1-0.1-0.2v-4.4h-1.6c-0.1,0-0.2,0-0.2-0.1
				c-0.1-0.1-0.1-0.1-0.1-0.2c0-0.1,0-0.2,0.1-0.2c0.1-0.1,0.1-0.1,0.2-0.1h3.8C162.6,57.3,162.6,57.3,162.7,57.4z"/>
			<path fill="#FFFFFF" d="M164.9,57.3c0.1,0,0.2,0,0.2,0.1c0.1,0.1,0.1,0.2,0.1,0.3v4.7c0,0.1,0,0.2-0.1,0.2
				c-0.1,0.1-0.2,0.1-0.3,0.1c-0.1,0-0.2,0-0.2-0.1c-0.1-0.1-0.1-0.1-0.1-0.2v-4.7c0-0.1,0-0.2,0.1-0.2
				C164.8,57.3,164.8,57.3,164.9,57.3z"/>
			<path fill="#FFFFFF" d="M168.1,58c0.5-0.5,1.1-0.8,1.9-0.8c0.8,0,1.4,0.3,1.9,0.8c0.5,0.5,0.7,1.2,0.7,2c0,0.8-0.3,1.5-0.7,2
				c-0.5,0.5-1.1,0.8-1.9,0.8c-0.8,0-1.4-0.3-1.9-0.8c-0.5-0.5-0.7-1.2-0.7-2C167.4,59.1,167.6,58.5,168.1,58z M170,62
				c0.6,0,1.1-0.2,1.5-0.6c0.3-0.4,0.5-0.9,0.5-1.5c0-0.6-0.2-1.1-0.5-1.5c-0.4-0.4-0.8-0.6-1.5-0.6c-0.6,0-1.1,0.2-1.5,0.6
				c-0.3,0.4-0.5,0.9-0.5,1.5c0,0.6,0.2,1.1,0.5,1.5C168.9,61.8,169.4,62,170,62z"/>
			<path fill="#FFFFFF" d="M179.1,57.3c0.1,0,0.2,0,0.2,0.1c0.1,0.1,0.1,0.2,0.1,0.3v4.5c0,0.1,0,0.3-0.1,0.3
				c-0.1,0.1-0.2,0.1-0.4,0.1h-0.1c-0.2,0-0.3-0.1-0.4-0.2l-2.9-4.3v4.1c0,0.1,0,0.2-0.1,0.2c-0.1,0.1-0.2,0.1-0.3,0.1
				c-0.1,0-0.2,0-0.2-0.1c-0.1-0.1-0.1-0.1-0.1-0.2v-4.5c0-0.1,0-0.3,0.1-0.4c0.1-0.1,0.2-0.1,0.4-0.1h0.1c0.2,0,0.3,0.1,0.4,0.2
				l2.9,4.2v-4.1c0-0.1,0-0.2,0.1-0.2C178.9,57.3,179,57.3,179.1,57.3z"/>
			<path fill="#FFFFFF" d="M188.8,61.7c0,0,0.1,0,0.2,0c0.1,0,0.1,0,0.2,0.1c0.1,0.1,0.1,0.1,0.1,0.2c0,0.1-0.1,0.2-0.2,0.3
				c-0.2,0.1-0.5,0.2-0.8,0.3c-0.3,0.1-0.6,0.1-1,0.1c-0.4,0-0.7-0.1-1.1-0.2c-0.3-0.1-0.6-0.3-0.8-0.5c-0.5-0.5-0.8-1.2-0.8-2
				c0-0.8,0.3-1.5,0.8-2c0.5-0.5,1.1-0.7,1.9-0.7c0.4,0,0.7,0,1,0.1c0.3,0.1,0.5,0.2,0.6,0.3c0.1,0.1,0.2,0.1,0.3,0.2
				s0.1,0.1,0.1,0.2s0,0.1-0.1,0.2c-0.1,0.1-0.1,0.1-0.2,0.1s-0.1,0-0.2,0c-0.2-0.1-0.4-0.2-0.6-0.3c-0.2-0.1-0.5-0.1-0.8-0.1
				c-0.3,0-0.6,0.1-0.9,0.2c-0.3,0.1-0.5,0.3-0.6,0.4c-0.3,0.4-0.5,0.9-0.5,1.5c0,0.6,0.2,1.1,0.5,1.5c0.4,0.4,0.9,0.6,1.5,0.6
				c0.3,0,0.6,0,0.8-0.1C188.4,61.9,188.6,61.8,188.8,61.7z"/>
			<path fill="#FFFFFF" d="M191.6,58c0.5-0.5,1.1-0.8,1.9-0.8s1.4,0.3,1.9,0.8c0.5,0.5,0.7,1.2,0.7,2c0,0.8-0.3,1.5-0.7,2
				c-0.5,0.5-1.1,0.8-1.9,0.8s-1.4-0.3-1.9-0.8c-0.5-0.5-0.7-1.2-0.7-2C190.9,59.1,191.2,58.5,191.6,58z M193.6,62
				c0.6,0,1.1-0.2,1.5-0.6c0.3-0.4,0.5-0.9,0.5-1.5c0-0.6-0.2-1.1-0.5-1.5c-0.4-0.4-0.8-0.6-1.5-0.6c-0.6,0-1.1,0.2-1.5,0.6
				c-0.3,0.4-0.5,0.9-0.5,1.5c0,0.6,0.2,1.1,0.5,1.5C192.5,61.8,193,62,193.6,62z"/>
			<path fill="#FFFFFF" d="M202.6,57.3c0.1,0,0.2,0,0.2,0.1c0.1,0.1,0.1,0.2,0.1,0.3v4.5c0,0.1,0,0.3-0.1,0.3
				c-0.1,0.1-0.2,0.1-0.4,0.1h-0.1c-0.2,0-0.3-0.1-0.4-0.2l-2.9-4.3v4.1c0,0.1,0,0.2-0.1,0.2c-0.1,0.1-0.2,0.1-0.3,0.1
				c-0.1,0-0.2,0-0.2-0.1c-0.1-0.1-0.1-0.1-0.1-0.2v-4.5c0-0.1,0-0.3,0.1-0.4c0.1-0.1,0.2-0.1,0.4-0.1h0.1c0.2,0,0.3,0.1,0.4,0.2
				l2.9,4.2v-4.1c0-0.1,0-0.2,0.1-0.2C202.5,57.3,202.5,57.3,202.6,57.3z"/>
			<path fill="#FFFFFF" d="M207,62c0.9,0,1.3-0.3,1.3-0.9c0-0.2-0.2-0.4-0.5-0.6c-0.1-0.1-0.3-0.1-0.5-0.2c-0.2,0-0.4-0.1-0.6-0.2
				c-0.2-0.1-0.4-0.1-0.6-0.2c-0.2-0.1-0.4-0.2-0.5-0.3c-0.3-0.3-0.5-0.6-0.5-1c0-0.4,0.2-0.8,0.5-1.1c0.4-0.3,0.9-0.5,1.5-0.5
				c0.6,0,1.1,0.1,1.5,0.3c0.1,0,0.2,0.2,0.2,0.3c0,0.1,0,0.1-0.1,0.2c-0.1,0.1-0.1,0.1-0.2,0.1c-0.1,0-0.2,0-0.3-0.1
				c-0.3-0.1-0.7-0.2-1.1-0.2c-0.4,0-0.7,0.1-1,0.2c-0.3,0.2-0.4,0.4-0.4,0.6c0,0.3,0.2,0.5,0.5,0.7c0.2,0.1,0.3,0.1,0.5,0.2
				c0.2,0,0.4,0.1,0.6,0.1c0.2,0,0.4,0.1,0.6,0.2c0.2,0.1,0.4,0.2,0.5,0.3c0.3,0.2,0.5,0.6,0.5,1.1c0,0.4-0.2,0.8-0.5,1.1
				c-0.4,0.3-0.8,0.4-1.4,0.4c-0.6,0-1.2-0.1-1.8-0.4c-0.1,0-0.1-0.1-0.1-0.1c0-0.1-0.1-0.1-0.1-0.2s0-0.1,0.1-0.2
				c0.1-0.1,0.1-0.1,0.2-0.1s0.2,0,0.3,0.1c0.1,0,0.3,0.1,0.5,0.2C206.4,62,206.7,62,207,62z"/>
			<path fill="#FFFFFF" d="M215,57.3c0.1,0,0.2,0,0.2,0.1c0.1,0.1,0.1,0.2,0.1,0.3v3c0,0.7-0.2,1.2-0.7,1.6
				c-0.4,0.3-0.9,0.5-1.5,0.5c-0.6,0-1.1-0.2-1.5-0.5c-0.5-0.4-0.7-0.9-0.7-1.6v-3c0-0.1,0-0.2,0.1-0.2c0.1-0.1,0.1-0.1,0.2-0.1
				s0.2,0,0.2,0.1c0.1,0.1,0.1,0.2,0.1,0.3v3c0,0.5,0.2,0.8,0.5,1.1c0.3,0.2,0.6,0.4,1,0.4c0.4,0,0.7-0.1,1-0.4
				c0.3-0.3,0.5-0.6,0.5-1.1v-3c0-0.1,0-0.2,0.1-0.2C214.8,57.3,214.9,57.3,215,57.3z"/>
			<path fill="#FFFFFF" d="M221.2,62c0.1,0.1,0.1,0.1,0.1,0.2c0,0.1,0,0.2-0.1,0.2c-0.1,0.1-0.1,0.1-0.2,0.1h-2.7
				c-0.1,0-0.3,0-0.3-0.1c-0.1-0.1-0.1-0.2-0.1-0.3v-4.5c0-0.1,0-0.2,0.1-0.2c0.1-0.1,0.1-0.1,0.2-0.1s0.2,0,0.2,0.1
				c0.1,0.1,0.1,0.2,0.1,0.3v4.3h2.5C221,61.9,221.1,62,221.2,62z"/>
			<path fill="#FFFFFF" d="M226.8,57.4c0.1,0.1,0.1,0.1,0.1,0.2s0,0.2-0.1,0.2c-0.1,0.1-0.1,0.1-0.2,0.1H225v4.4
				c0,0.1,0,0.2-0.1,0.2c-0.1,0.1-0.1,0.1-0.2,0.1c-0.1,0-0.2,0-0.2-0.1c-0.1-0.1-0.1-0.1-0.1-0.2v-4.4h-1.6c-0.1,0-0.2,0-0.2-0.1
				c-0.1-0.1-0.1-0.1-0.1-0.2c0-0.1,0-0.2,0.1-0.2c0.1-0.1,0.1-0.1,0.2-0.1h3.8C226.6,57.3,226.7,57.3,226.8,57.4z"/>
			<path fill="#FFFFFF" d="M229,57.3c0.1,0,0.2,0,0.2,0.1c0.1,0.1,0.1,0.2,0.1,0.3v4.7c0,0.1,0,0.2-0.1,0.2
				c-0.1,0.1-0.2,0.1-0.3,0.1c-0.1,0-0.2,0-0.2-0.1c-0.1-0.1-0.1-0.1-0.1-0.2v-4.7c0-0.1,0-0.2,0.1-0.2
				C228.8,57.3,228.9,57.3,229,57.3z"/>
			<path fill="#FFFFFF" d="M236.1,57.3c0.1,0,0.2,0,0.2,0.1c0.1,0.1,0.1,0.2,0.1,0.3v4.5c0,0.1,0,0.3-0.1,0.3
				c-0.1,0.1-0.2,0.1-0.4,0.1h-0.1c-0.2,0-0.3-0.1-0.4-0.2l-2.9-4.3v4.1c0,0.1,0,0.2-0.1,0.2c-0.1,0.1-0.2,0.1-0.3,0.1
				c-0.1,0-0.2,0-0.2-0.1c-0.1-0.1-0.1-0.1-0.1-0.2v-4.5c0-0.1,0-0.3,0.1-0.4c0.1-0.1,0.2-0.1,0.4-0.1h0.1c0.2,0,0.3,0.1,0.4,0.2
				l2.9,4.2v-4.1c0-0.1,0-0.2,0.1-0.2C235.9,57.3,236,57.3,236.1,57.3z"/>
			<path fill="#FFFFFF" d="M241.3,62c0.5,0,0.9-0.1,1.3-0.3v-1.4h-1.3c-0.1,0-0.2,0-0.2-0.1c-0.1-0.1-0.1-0.1-0.1-0.2s0-0.2,0.1-0.2
				c0.1-0.1,0.1-0.1,0.2-0.1h1.5c0.1,0,0.2,0,0.3,0.1c0.1,0.1,0.1,0.2,0.1,0.3v1.7c0,0.1,0,0.2-0.1,0.3c-0.1,0.1-0.1,0.1-0.2,0.2
				c-0.6,0.3-1.1,0.4-1.7,0.4c-0.8,0-1.4-0.3-1.9-0.8c-0.5-0.5-0.7-1.2-0.7-2c0-0.8,0.3-1.5,0.8-2c0.5-0.5,1.1-0.7,1.9-0.7
				c0.4,0,0.8,0.1,1.1,0.2c0.3,0.1,0.6,0.2,0.8,0.4c0.1,0.1,0.1,0.1,0.1,0.2s0,0.2-0.1,0.3c-0.1,0.1-0.1,0.1-0.2,0.1
				c-0.1,0-0.1,0-0.2,0c-0.5-0.3-1-0.4-1.5-0.4c-0.6,0-1.1,0.2-1.4,0.5c-0.4,0.4-0.6,0.9-0.6,1.5c0,0.6,0.2,1.1,0.5,1.5
				C240.1,61.8,240.6,62,241.3,62z"/>
		</g>
		<g>
			<path fill="#FFFFFF" d="M88.6,42.7c0.2-0.1,0.4-0.1,0.7-0.1s0.6,0.1,0.8,0.4s0.4,0.5,0.4,0.8c0,0.6-0.2,1-0.7,1.3
				c-1,0.6-2.1,1-3.2,1.4C85.4,46.8,84,47,82.4,47c-1.6,0-3.1-0.3-4.5-0.8c-1.4-0.5-2.6-1.3-3.6-2.3c-2.1-2.1-3.2-4.9-3.2-8.5
				c0-3.5,1.1-6.4,3.2-8.5c2.1-2,4.8-3.1,8-3.1c1.6,0,3,0.2,4.1,0.6c1.1,0.4,2,0.8,2.6,1.1c0.6,0.3,1,0.6,1.1,0.8
				c0.1,0.2,0.2,0.5,0.2,0.8s-0.1,0.6-0.4,0.8c-0.2,0.2-0.5,0.4-0.8,0.4c-0.3,0-0.5,0-0.7-0.1c-0.9-0.5-1.7-0.8-2.7-1.1
				c-0.9-0.3-2-0.4-3.4-0.4c-1.3,0-2.5,0.2-3.6,0.7c-1.1,0.5-2,1.1-2.7,1.9c-1.4,1.6-2.1,3.6-2.1,6.2c0,2.6,0.7,4.6,2.1,6.2
				c1.6,1.7,3.7,2.6,6.5,2.6c1.3,0,2.3-0.1,3.2-0.4C86.9,43.5,87.7,43.1,88.6,42.7z"/>
			<path fill="#FFFFFF" d="M114.2,44.3c0.3,0.3,0.4,0.6,0.4,1c0,0.4-0.1,0.7-0.4,0.9c-0.3,0.3-0.6,0.4-1,0.4h-12.9
				c-0.4,0-0.7-0.1-1-0.4c-0.3-0.3-0.4-0.6-0.4-1V25.7c0-0.4,0.1-0.7,0.4-1c0.3-0.3,0.6-0.5,1-0.5h12.9c0.4,0,0.7,0.1,1,0.4
				c0.3,0.3,0.4,0.6,0.4,1c0,0.4-0.1,0.7-0.4,1c-0.3,0.3-0.6,0.4-1,0.4h-11.4v7.1h10.2c0.4,0,0.7,0.1,1,0.4c0.3,0.3,0.4,0.6,0.4,1
				c0,0.4-0.1,0.7-0.4,1s-0.6,0.4-1,0.4h-10.2v7.1h11.4C113.6,43.9,114,44.1,114.2,44.3z"/>
			<path fill="#FFFFFF" d="M131.5,27l-7.6,18.8c-0.3,0.7-0.7,1-1.2,1c-0.6,0-1-0.1-1.2-0.4c-0.2-0.3-0.4-0.6-0.4-0.9
				c0-0.3,0-0.5,0.1-0.7l7.9-19.2c0.5-1,1.1-1.5,2-1.5h0.7c0.9,0,1.5,0.5,2,1.5l8,19.2c0.1,0.2,0.1,0.4,0.1,0.7
				c0,0.3-0.1,0.6-0.4,0.9c-0.2,0.3-0.6,0.4-1,0.4c-0.7,0-1.2-0.3-1.5-1L131.5,27z"/>
			<path fill="#FFFFFF" d="M165.1,44.3c0.3,0.3,0.4,0.6,0.4,1c0,0.4-0.1,0.7-0.4,0.9c-0.3,0.3-0.6,0.4-1,0.4h-12.9
				c-0.4,0-0.7-0.1-1-0.4c-0.3-0.3-0.4-0.6-0.4-1V25.7c0-0.4,0.1-0.7,0.4-1c0.3-0.3,0.6-0.5,1-0.5h12.9c0.4,0,0.7,0.1,1,0.4
				c0.3,0.3,0.4,0.6,0.4,1c0,0.4-0.1,0.7-0.4,1c-0.3,0.3-0.6,0.4-1,0.4h-11.4v7.1h10.2c0.4,0,0.7,0.1,1,0.4c0.3,0.3,0.4,0.6,0.4,1
				c0,0.4-0.1,0.7-0.4,1c-0.3,0.3-0.6,0.4-1,0.4h-10.2v7.1h11.4C164.5,43.9,164.8,44.1,165.1,44.3z"/>
			<path fill="#FFFFFF" d="M191.4,44.5c0.2,0.3,0.4,0.6,0.4,1s-0.1,0.7-0.4,1c-0.3,0.3-0.6,0.4-1.1,0.4c-0.4,0-0.8-0.2-1.1-0.5
				l-8.3-10.6l-3.7,3.7v6c0,0.4-0.1,0.7-0.4,1c-0.3,0.3-0.6,0.4-1.1,0.4c-0.4,0-0.7-0.1-1-0.4c-0.3-0.3-0.4-0.6-0.4-1V25.5
				c0-0.4,0.1-0.7,0.4-1c0.3-0.3,0.6-0.5,1-0.5s0.7,0.1,1,0.4c0.3,0.3,0.5,0.6,0.5,1.1v10.2l11-11.1c0.3-0.3,0.6-0.5,1-0.5
				c0.4,0,0.8,0.1,1,0.4c0.3,0.2,0.4,0.6,0.4,1c0,0.4-0.1,0.7-0.4,0.9l-7.4,7.4L191.4,44.5z"/>
			<path fill="#FFFFFF" d="M215.5,24.6c0.3,0.3,0.4,0.6,0.4,1c0,0.4-0.1,0.7-0.4,1c-0.3,0.3-0.6,0.4-1,0.4H208v18.4
				c0,0.4-0.1,0.7-0.4,1c-0.3,0.3-0.6,0.4-1,0.4c-0.4,0-0.7-0.1-1-0.4c-0.3-0.3-0.4-0.6-0.4-1V27h-6.6c-0.4,0-0.7-0.1-1-0.4
				c-0.3-0.3-0.4-0.6-0.4-1c0-0.4,0.1-0.7,0.4-1c0.3-0.3,0.6-0.4,1-0.4h16C214.9,24.2,215.2,24.3,215.5,24.6z"/>
			<path fill="#FFFFFF" d="M225.2,27.1c2-2.1,4.8-3.2,8.2-3.2c3.4,0,6.1,1.1,8.2,3.2c2,2.1,3,4.9,3.1,8.3c-0.1,3.4-1.1,6.2-3.1,8.3
				c-2,2.1-4.8,3.2-8.2,3.2c-3.4,0-6.1-1.1-8.2-3.2c-2-2.1-3.1-4.9-3.1-8.3C222.2,32,223.2,29.3,225.2,27.1z M233.4,44.2
				c2.6,0,4.7-0.8,6.2-2.5c1.5-1.6,2.2-3.7,2.2-6.3c0-2.6-0.7-4.7-2.2-6.3c-1.5-1.7-3.6-2.5-6.2-2.5c-2.6,0-4.7,0.8-6.2,2.5
				c-1.5,1.6-2.2,3.7-2.2,6.3c0,2.6,0.7,4.7,2.2,6.3C228.7,43.4,230.8,44.2,233.4,44.2z"/>
			<path fill="#FFFFFF" d="M262.3,24.2c3,0,5.2,0.8,6.7,2.3c1.2,1.2,1.9,2.8,1.9,4.8c0,2-0.6,3.6-1.9,4.8c-1.5,1.5-3.8,2.3-6.7,2.3
				h-5.9v6.9c0,0.4-0.1,0.7-0.4,1c-0.3,0.3-0.6,0.4-1.1,0.4c-0.4,0-0.7-0.1-1-0.4c-0.3-0.3-0.4-0.6-0.4-1V25.7c0-0.4,0.1-0.7,0.4-1
				c0.3-0.3,0.6-0.5,1-0.5H262.3z M262,35.7c2.2,0,3.8-0.5,4.8-1.4c0.8-0.7,1.2-1.7,1.1-3c0-2-1-3.3-3-4c-0.8-0.3-1.8-0.4-2.9-0.4
				h-5.6v8.8H262z"/>
		</g>
	</g>
</g>
</svg>
