<?xml version="1.0" encoding="utf-8"?>
<!-- Generator: Adobe Illustrator 24.0.1, SVG Export Plug-In . SVG Version: 6.00 Build 0)  -->
<svg version="1.1" baseProfile="tiny" id="Слой_1"
	 xmlns="http://www.w3.org/2000/svg" xmlns:xlink="http://www.w3.org/1999/xlink" x="0px" y="0px" width="218.3px" height="218.3px"
	 viewBox="0 0 218.3 218.3" xml:space="preserve">
<g>
	<polyline points="217.9,67.7 216.7,67.8 189.1,6.2 190.3,6.2 217.9,67.7 	"/>
	<polygon points="214.8,70.8 187.2,9.2 186.1,9.3 213.7,70.8 	"/>
	<polygon points="211.8,73.8 184.2,12.3 183,12.3 210.6,73.9 	"/>
	<polygon points="208.7,76.9 181.1,15.3 180,15.4 207.6,76.9 	"/>
	<polygon points="205.7,79.9 178.1,18.4 176.9,18.4 204.5,80 	"/>
	<polygon points="202.6,83 175,21.4 173.9,21.5 201.5,83 	"/>
	<polygon points="199.6,86 172,24.5 170.8,24.5 198.4,86.1 	"/>
	<polygon points="196.5,89.1 168.9,27.5 167.8,27.6 195.4,89.1 	"/>
	<polygon points="193.5,92.1 165.9,30.6 164.7,30.6 192.3,92.2 	"/>
	<polygon points="190.4,95.2 162.8,33.6 161.7,33.7 189.3,95.2 	"/>
	<polygon points="187.4,98.2 159.8,36.7 158.6,36.7 186.2,98.3 	"/>
	<polygon points="184.3,101.3 156.7,39.7 155.6,39.8 183.2,101.3 	"/>
	<polygon points="181.3,104.3 153.7,42.8 152.5,42.8 180.1,104.4 	"/>
	<polygon points="178.2,107.4 150.6,45.8 149.5,45.9 177.1,107.4 	"/>
	<polygon points="175.2,110.4 147.6,48.9 146.4,48.9 174,110.5 	"/>
	<polygon points="172.1,113.5 144.5,51.9 143.4,52 171,113.5 	"/>
	<polygon fill="none" points="208.9,54.4 162.7,42 175.1,88.2 	"/>
	<path d="M131.3,195.3c-5.7,0-10.4-4.7-10.4-10.4s4.7-10.4,10.4-10.4c5.7,0,10.4,4.7,10.4,10.4S137.1,195.3,131.3,195.3z
		 M131.3,179.5c-3,0-5.4,2.4-5.4,5.4s2.4,5.4,5.4,5.4c3,0,5.4-2.4,5.4-5.4S134.3,179.5,131.3,179.5z"/>
	<polygon fill="#EB4D55" points="0.4,109.1 180.4,213.1 180.4,5.2 	"/>
</g>
</svg>
